<svg id="Capa_1" enable-background="new 0 0 510 510" height="512" viewBox="0 0 510 510" width="512"
    xmlns="http://www.w3.org/2000/svg">
    <g>
        <path fill="#fff"
            d="m416 0h-322c-16.54 0-30 13.46-30 30v450c0 16.54 13.46 30 30 30h322c16.54 0 30-13.46 30-30v-450c0-16.54-13.46-30-30-30zm-225 422h-48c-8.284 0-15-6.716-15-15s6.716-15 15-15h48c8.284 0 15 6.716 15 15s-6.716 15-15 15zm0-64h-48c-8.284 0-15-6.716-15-15s6.716-15 15-15h48c8.284 0 15 6.716 15 15s-6.716 15-15 15zm0-64h-48c-8.284 0-15-6.716-15-15s6.716-15 15-15h48c8.284 0 15 6.716 15 15s-6.716 15-15 15zm3.529-62h-55.059c-6.335 0-11.471-6.716-11.471-15s5.136-15 11.471-15h55.059c6.335 0 11.471 6.716 11.471 15s-5.136 15-11.471 15zm187.471 183c0 10.687-10.848 17.902-20.677 13.884l-50.323-20.574-50.323 20.575c-9.859 4.032-20.677-3.236-20.677-13.885 0-144.725-.124-136.017.264-138.105-3.454-41.794 29.666-76.895 70.736-76.895 39.149 0 71 31.851 71 71zm-15-249h-224c-8.28 0-15-6.72-15-15s6.72-15 15-15h224c8.28 0 15 6.72 15 15s-6.72 15-15 15zm0-64h-224c-8.28 0-15-6.72-15-15s6.72-15 15-15h224c8.28 0 15 6.72 15 15s-6.72 15-15 15z" />
        <circle fill="#fff" cx="311" cy="271" r="41" />
        <path fill="#fff"
            d="m270 328.911v63.751l35.323-14.442c3.639-1.487 7.715-1.487 11.354 0l35.323 14.442v-63.751c-24.603 17.47-57.422 17.452-82 0z" />
    </g>
</svg>